# File created by Blade
# Date/Time:  Mon Sep 29 18:17:19 2014
#---------------------------------------------------------
:version 1.10
:name HOM
:units
  mass 1.0
  length 1.000000
  angle deg
:documentation
     Acclaim Skeleton File
:root
   axis xyz
   order TX TY TZ RX RY RZ
   position 0.000000 0.000000 0.000000
   orientation 0 0 0
:bonedata
   begin
      id 1
      name Spine_dum
      direction 0.000000 1.000000 0.000000
      length 7.508948
      axis 0.0 0.0 0.0 xyz
   end
   begin
      id 2
      name LeftUpLeg_dum
      direction 1.000000 0.000000 0.000000
      length 3.000560
      axis 0.0 0.0 0.0 xyz
   end
   begin
      id 3
      name RightUpLeg_dum
      direction -1.000000 0.000000 0.000000
      length 3.000560
      axis 0.0 0.0 0.0 xyz
   end
   begin
      id 4
      name Spine
      direction 0.000000 1.000000 0.000000
      length 0.000000
      axis 0.0 0.0 0.0 xyz
      dof rx ry rz
   end
   begin
      id 5
      name Spine_dum1
      direction 0.000000 1.000000 0.000000
      length 13.861154
      axis 0.0 0.0 0.0 xyz
   end
   begin
      id 6
      name Spine_dum2
      direction 0.000000 1.000000 0.000000
      length 8.204781
      axis 0.0 0.0 0.0 xyz
   end
   begin
      id 7
      name Spine_dum3
      direction 0.000000 1.000000 0.000000
      length 8.204781
      axis 0.0 0.0 0.0 xyz
   end
   begin
      id 8
      name Head
      direction 0.000000 1.000000 0.000000
      length 4.527550
      axis 0.0 0.0 0.0 xyz
      dof rx ry rz
   end
   begin
      id 9
      name LeftShoulder
      direction 1.000000 0.000000 0.000000
      length 6.635956
      axis 0.0 0.0 -90.0 xyz
      dof rx ry rz
   end
   begin
      id 10
      name LeftArm
      direction 1.000000 0.000000 0.000000
      length 10.274218
      axis 0.0 0.0 -90.0 xyz
      dof rx ry rz
   end
   begin
      id 11
      name LeftForeArm
      direction 1.000000 0.000000 0.000000
      length 8.522147
      axis 0.0 0.0 -90.0 xyz
      dof ry rz rx
   end
   begin
      id 12
      name LeftHand
      direction 0.000000 0.000000 0.000000
      length 0.000000
      axis 0.0 0.0 -90.0 xyz
      dof rx ry rz
   end
   begin
      id 13
      name LeftHand_dum1
      direction 0.000000 0.000000 0.000000
      length 0.000000
      axis 0.0 0.0 -90.0 xyz
   end
   begin
      id 14
      name LeftHand_dum2
      direction 1.000000 0.000000 0.000000
      length 3.937000
      axis 0.0 0.0 -90.0 xyz
   end
   begin
      id 15
      name LeftHandThumb1
      direction 0.000000 0.000000 1.000000
      length 3.937000
      axis 0.0 0.0 -90.0 xyz
      dof rx rz ry
   end
   begin
      id 16
      name RightShoulder
      direction -1.000000 0.000000 0.000000
      length 6.635956
      axis 0.0 0.0 90.0 xyz
      dof rx ry rz
   end
   begin
      id 17
      name RightArm
      direction -1.000000 0.000000 0.000000
      length 10.274218
      axis 0.0 0.0 90.0 xyz
      dof rx ry rz
   end
   begin
      id 18
      name RightForeArm
      direction -1.000000 0.000000 0.000000
      length 8.522147
      axis 0.0 0.0 90.0 xyz
      dof ry rz rx
   end
   begin
      id 19
      name RightHand
      direction 0.000000 0.000000 0.000000
      length 0.000000
      axis 0.0 0.0 90.0 xyz
      dof rx ry rz
   end
   begin
      id 20
      name RightHand_dum1
      direction 0.000000 0.000000 0.000000
      length 0.000000
      axis 0.0 0.0 90.0 xyz
   end
   begin
      id 21
      name RightHand_dum2
      direction -1.000000 0.000000 0.000000
      length 3.937000
      axis 0.0 0.0 90.0 xyz
   end
   begin
      id 22
      name RightHandThumb1
      direction 0.000000 0.000000 1.000000
      length 3.937000
      axis 0.0 0.0 90.0 xyz
      dof rx rz ry
   end
   begin
      id 23
      name LeftUpLeg
      direction 0.000000 -1.000000 0.000000
      length 16.490845
      axis 0.0 0.0 0.0 xyz
      dof rx ry rz
   end
   begin
      id 24
      name LeftLeg
      direction 0.000000 -1.000000 0.000000
      length 14.556576
      axis 0.0 0.0 0.0 xyz
      dof rx ry rz
   end
   begin
      id 25
      name LeftFoot
      direction 0.000000 -0.258819 0.965926
      length 4.831116
      axis 15.0 0.0 0.0 xyz
      dof rx ry rz
   end
   begin
      id 26
      name LeftToeBase
      direction 0.000000 0.000000 1.000000
      length 2.952750
      axis 0.0 0.0 0.0 xyz
      dof rx ry rz
   end
   begin
      id 27
      name RightUpLeg
      direction 0.000000 -1.000000 0.000000
      length 16.490845
      axis 0.0 0.0 0.0 xyz
      dof rx ry rz
   end
   begin
      id 28
      name RightLeg
      direction 0.000000 -1.000000 0.000000
      length 14.556576
      axis 0.0 0.0 0.0 xyz
      dof rx ry rz
   end
   begin
      id 29
      name RightFoot
      direction 0.000000 -0.258819 0.965926
      length 4.831116
      axis 15.0 0.0 0.0 xyz
      dof rx ry rz
   end
   begin
      id 30
      name RightToeBase
      direction 0.000000 0.000000 1.000000
      length 2.952750
      axis 0.0 0.0 0.0 xyz
      dof rx ry rz
   end
:hierarchy
   begin
      root Spine_dum LeftUpLeg_dum RightUpLeg_dum
      Spine_dum Spine
      LeftUpLeg_dum LeftUpLeg
      RightUpLeg_dum RightUpLeg
      Spine Spine_dum1 Spine_dum2 Spine_dum3
      Spine_dum1 Head
      Spine_dum2 LeftShoulder
      Spine_dum3 RightShoulder
      LeftShoulder LeftArm
      LeftArm LeftForeArm
      LeftForeArm LeftHand
      LeftHand LeftHand_dum1 LeftHand_dum2
      LeftHand_dum1 LeftHandThumb1
      RightShoulder RightArm
      RightArm RightForeArm
      RightForeArm RightHand
      RightHand RightHand_dum1 RightHand_dum2
      RightHand_dum1 RightHandThumb1
      LeftUpLeg LeftLeg
      LeftLeg LeftFoot
      LeftFoot LeftToeBase
      RightUpLeg RightLeg
      RightLeg RightFoot
      RightFoot RightToeBase
   end

# File created by Blade
# Date/Time:  Mon Sep 29 17:58:21 2014
# Frame Rate: 120.000 fps
#------------------------------------------------------
:FULLY-SPECIFIED
:DEGREES
424
root 0.287304 11.450197 -7.417293 35.419728 2.140126 -1.332078
Spine 44.488268 6.446282 1.830776
Head -73.223443 -0.061773 8.081127
LeftShoulder 17.411181 -8.689155 20.658790
LeftArm 55.545432 18.944897 -13.639833
LeftForeArm 54.592628 -0.000000 64.452209
LeftHand -37.305844 -0.000000 41.514906
LeftHandThumb1 -26.253704 0.000000 33.147579
RightShoulder 7.188010 36.596782 -19.096620
RightArm 38.034634 -46.495659 35.579990
RightForeArm -52.174966 -0.000000 62.343238
RightHand -5.493946 -0.000000 -25.949713
RightHandThumb1 -24.326973 -0.000000 -32.862282
LeftUpLeg -129.090090 46.809797 -7.582782
LeftLeg 134.519543 -0.000000 -0.000000
LeftFoot -33.848930 -17.514474 -20.052458
LeftToeBase 6.867043 -0.000000 -0.000000
RightUpLeg -128.126983 -38.136980 6.378490
RightLeg 134.074896 -0.000000 -0.000000
RightFoot -34.642704 1.701228 18.178246
RightToeBase 2.997355 -0.000000 -0.000000
425
root 0.287448 11.446709 -7.416143 35.415763 2.137220 -1.326635
Spine 44.485360 6.463020 1.841497
Head -73.076038 -0.052503 8.111480
LeftShoulder 17.416841 -8.700060 20.679539
LeftArm 55.575595 18.959768 -13.702372
LeftForeArm 54.651570 0.000000 64.407740
LeftHand -37.343570 -0.000000 41.651006
LeftHandThumb1 -26.253704 0.000000 33.147579
RightShoulder 7.153801 36.583376 -19.135413
RightArm 38.005317 -46.490585 35.644333
RightForeArm -52.186857 0.000000 62.332450
RightHand -5.463800 -0.000000 -26.018049
RightHandThumb1 -24.326973 -0.000000 -32.862282
LeftUpLeg -129.076983 46.813662 -7.564421
LeftLeg 134.527151 -0.000000 -0.000000
LeftFoot -33.850406 -17.517232 -20.048475
LeftToeBase 6.830458 -0.000000 -0.000000
RightUpLeg -128.130887 -38.145370 6.363886
RightLeg 134.088367 -0.000000 -0.000000
RightFoot -34.631732 1.721470 18.178348
RightToeBase 2.969026 -0.000000 -0.000000
426
root 0.286005 11.445686 -7.416223 35.418704 2.123360 -1.326647
Spine 44.486224 6.499655 1.844950
Head -72.927431 -0.024505 8.153383
LeftShoulder 17.430931 -8.734691 20.706177
LeftArm 55.583532 18.991445 -13.714098
LeftForeArm 54.613549 -0.000000 64.412939
LeftHand -37.321821 -0.000000 41.609144
LeftHandThumb1 -26.253704 0.000000 33.147579
RightShoulder 7.126713 36.573238 -19.177919
RightArm 37.959961 -46.476222 35.721979
RightForeArm -52.198166 -0.000000 62.325345
RightHand -5.467963 -0.000000 -26.005951
RightHandThumb1 -24.326973 -0.000000 -32.862282
LeftUpLeg -129.068508 46.827232 -7.558128
LeftLeg 134.527550 -0.000000 -0.000000
LeftFoot -33.862502 -17.516217 -20.062138
LeftToeBase 6.875081 -0.000000 -0.000000
RightUpLeg -128.131855 -38.123064 6.346767
RightLeg 134.094669 -0.000000 -0.000000
RightFoot -34.634918 1.712956 18.192324
RightToeBase 2.971322 -0.000000 -0.000000
427
root 0.284965 11.445302 -7.416478 35.417114 2.115758 -1.323635
Spine 44.498317 6.518661 1.840648
Head -72.780066 0.024879 8.210195
LeftShoulder 17.432160 -8.783910 20.731125
LeftArm 55.577311 19.031268 -13.769799
LeftForeArm 54.638078 -0.000000 64.417469
LeftHand -37.378243 -0.000000 41.619988
LeftHandThumb1 -26.253704 0.000000 33.147579
RightShoulder 7.106525 36.564832 -19.205580
RightArm 37.939053 -46.453877 35.780474
RightForeArm -52.214360 -0.000000 62.296509
RightHand -5.417817 0.000000 -26.085345
RightHandThumb1 -24.326973 -0.000000 -32.862282
LeftUpLeg -129.051377 46.835516 -7.545644
LeftLeg 134.525087 -0.000000 -0.000000
LeftFoot -33.860135 -17.538050 -20.062903
LeftToeBase 6.900368 -0.000000 -0.000000
RightUpLeg -128.122611 -38.105461 6.330284
RightLeg 134.094525 -0.000000 -0.000000
RightFoot -34.654191 1.689984 18.191427
RightToeBase 2.998984 -0.000000 -0.000000
428
root 0.283963 11.445150 -7.416841 35.421917 2.115929 -1.319208
Spine 44.506220 6.537395 1.850759
Head -72.642577 0.044792 8.244629
LeftShoulder 17.440411 -8.749916 20.772423
LeftArm 55.577756 18.978612 -13.829913
LeftForeArm 54.658726 -0.000000 64.444287
LeftHand -37.383483 -0.000000 41.589765
LeftHandThumb1 -26.253704 0.000000 33.147579
RightShoulder 7.080784 36.548363 -19.240145
RightArm 37.894107 -46.420277 35.851818
RightForeArm -52.250599 -0.000000 62.297485
RightHand -5.405632 -0.000000 -26.122472
RightHandThumb1 -24.326973 -0.000000 -32.862282
LeftUpLeg -129.042065 46.831926 -7.535195
LeftLeg 134.519074 -0.000000 -0.000000
LeftFoot -33.864174 -17.537678 -20.069898
LeftToeBase 6.879619 -0.000000 -0.000000
RightUpLeg -128.123889 -38.108911 6.315792
RightLeg 134.099389 -0.000000 -0.000000
RightFoot -34.643938 1.694857 18.238156
RightToeBase 3.035460 -0.000000 -0.000000
429
root 0.283217 11.445439 -7.417426 35.428990 2.116470 -1.311654
Spine 44.518354 6.543288 1.853063
Head -72.516363 0.077846 8.241230
LeftShoulder 17.443506 -8.747770 20.803720
LeftArm 55.557658 18.959328 -13.904593
LeftForeArm 54.684729 -0.000000 64.481539
LeftHand -37.428282 -0.000000 41.564512
LeftHandThumb1 -26.253704 0.000000 33.147579
RightShoulder 7.052231 36.540204 -19.289367
RightArm 37.848350 -46.385875 35.939865
RightForeArm -52.299820 -0.000000 62.302378
RightHand -5.405721 -0.000000 -26.133477
RightHandThumb1 -24.326973 -0.000000 -32.862282
LeftUpLeg -129.040208 46.825361 -7.531184
LeftLeg 134.512636 -0.000000 -0.000000
LeftFoot -33.843911 -17.552579 -20.117870
LeftToeBase 6.891233 -0.000000 -0.000000
RightUpLeg -128.130135 -38.105731 6.308719
RightLeg 134.102645 -0.000000 -0.000000
RightFoot -34.650778 1.713401 18.226061
RightToeBase 3.042252 -0.000000 -0.000000
430
root 0.282267 11.446975 -7.419440 35.453902 2.119196 -1.304407
Spine 44.516342 6.546565 1.855993
Head -72.404326 0.116027 8.233848
LeftShoulder 17.440653 -8.746777 20.829465
LeftArm 55.531006 18.934628 -14.001249
LeftForeArm 54.702960 -0.000000 64.519523
LeftHand -37.461712 0.000000 41.565591
LeftHandThumb1 -26.253704 0.000000 33.147579
RightShoulder 7.019472 36.538558 -19.342772
RightArm 37.797166 -46.362600 36.035006
RightForeArm -52.356289 -0.000000 62.324110
RightHand -5.466782 -0.000000 -26.136122
RightHandThumb1 -24.326973 -0.000000 -32.862282
LeftUpLeg -129.064666 46.809016 -7.553862
LeftLeg 134.500677 -0.000000 -0.000000
LeftFoot -33.855174 -17.556051 -20.131008
LeftToeBase 6.897127 -0.000000 -0.000000
RightUpLeg -128.159828 -38.091547 6.321113
RightLeg 134.097053 -0.000000 -0.000000
RightFoot -34.655890 1.668064 18.217457
RightToeBase 2.996088 -0.000000 -0.000000
431
root 0.279722 11.449897 -7.422724 35.482303 2.131971 -1.303347
Spine 44.520071 6.549665 1.870470
Head -72.281785 0.148602 8.235681
LeftShoulder 17.447846 -8.762625 20.866464
LeftArm 55.478528 18.917700 -14.090091
LeftForeArm 54.720163 -0.000000 64.588060
LeftHand -37.465120 0.000000 41.507840
LeftHandThumb1 -26.253704 0.000000 33.147579
RightShoulder 6.974314 36.554859 -19.430927
RightArm 37.664116 -46.310912 36.246920
RightForeArm -52.372855 -0.000000 62.348678
RightHand -5.428744 -0.000000 -26.071873
RightHandThumb1 -24.326973 -0.000000 -32.862282
LeftUpLeg -129.080627 46.790853 -7.565381
LeftLeg 134.475118 -0.000000 -0.000000
LeftFoot -33.865534 -17.580831 -20.129631
LeftToeBase 6.890987 -0.000000 -0.000000
RightUpLeg -128.178876 -38.074959 6.331514
RightLeg 134.090096 -0.000000 -0.000000
RightFoot -34.656307 1.670992 18.250237
RightToeBase 2.980354 -0.000000 -0.000000
432
root 0.279287 11.451815 -7.422316 35.481315 2.115585 -1.287889
Spine 44.561279 6.562888 1.845574
Head -72.166496 0.208644 8.236974
LeftShoulder 17.438254 -8.775313 20.907264
LeftArm 55.427134 18.892760 -14.192202
LeftForeArm 54.718873 -0.000000 64.648333
LeftHand -37.446332 0.000000 41.458309
LeftHandThumb1 -26.253704 0.000000 33.147579
RightShoulder 6.937881 36.600314 -19.477701
RightArm 37.585450 -46.302781 36.374582
RightForeArm -52.407124 0.000000 62.374319
RightHand -5.437646 -0.000000 -26.058332
RightHandThumb1 -24.326973 -0.000000 -32.862282
LeftUpLeg -129.067491 46.789523 -7.574180
LeftLeg 134.471020 -0.000000 -0.000000
LeftFoot -33.857359 -17.563753 -20.137591
LeftToeBase 6.917231 -0.000000 -0.000000
RightUpLeg -128.168308 -38.058205 6.302915
RightLeg 134.086420 -0.000000 -0.000000
RightFoot -34.678603 1.634652 18.233504
RightToeBase 3.006957 -0.000000 -0.000000
433
root 0.277414 11.455670 -7.424978 35.510758 2.109278 -1.282496
Spine 44.571107 6.574250 1.832021
Head -72.045579 0.267016 8.239575
LeftShoulder 17.430745 -8.759936 20.954594
LeftArm 55.376351 18.839188 -14.288637
LeftForeArm 54.753391 0.000000 64.720217
LeftHand -37.434815 -0.000000 41.357615
LeftHandThumb1 -26.253704 0.000000 33.147579
RightShoulder 6.901771 36.615274 -19.545729
RightArm 37.488821 -46.253904 36.548731
RightForeArm -52.422581 -0.000000 62.396973
RightHand -5.393547 -0.000000 -26.030155
RightHandThumb1 -24.326973 -0.000000 -32.862282
LeftUpLeg -129.099916 46.773960 -7.607152
LeftLeg 134.448232 -0.000000 -0.000000
LeftFoot -33.852010 -17.540934 -20.144625
LeftToeBase 6.911188 -0.000000 -0.000000
RightUpLeg -128.190991 -38.036634 6.302296
RightLeg 134.077332 -0.000000 -0.000000
RightFoot -34.661734 1.656295 18.267828
RightToeBase 2.979138 -0.000000 -0.000000
434
root 0.275707 11.458121 -7.427168 35.538115 2.117596 -1.272382
Spine 44.574668 6.551062 1.818256
Head -71.930628 0.309191 8.239572
LeftShoulder 17.409218 -8.758666 20.974723
LeftArm 55.318997 18.815274 -14.368108
LeftForeArm 54.790319 -0.000000 64.791328
LeftHand -37.486108 0.000000 41.348869
LeftHandThumb1 -26.253704 0.000000 33.147579
RightShoulder 6.863342 36.629955 -19.604569
RightArm 37.482016 -46.230918 36.641181
RightForeArm -52.433456 -0.000000 62.391081
RightHand -5.407383 -0.000000 -26.027354
RightHandThumb1 -24.326973 -0.000000 -32.862282
LeftUpLeg -129.109782 46.754059 -7.614285
LeftLeg 134.430339 -0.000000 -0.000000
LeftFoot -33.853720 -17.547725 -20.138776
LeftToeBase 6.888496 -0.000000 -0.000000
RightUpLeg -128.216913 -38.032127 6.312243
RightLeg 134.072733 -0.000000 -0.000000
RightFoot -34.661810 1.643913 18.272865
RightToeBase 2.959243 -0.000000 -0.000000
